<svg width="46" height="48" viewBox="0 0 46 48" fill="none" xmlns="http://www.w3.org/2000/svg">
<path d="M44.3387 29.8928L31.5761 24.7692C30.8511 24.4774 30.0466 24.4332 29.3039 24.6719C27.9467 25.1096 26.7354 25.8655 25.7496 26.8513C24.3704 28.2306 23.442 30.0652 23.2033 32.112C23.1812 32.2932 23.0442 32.3861 22.8983 32.3861C22.7524 32.3861 22.6153 32.2932 22.5932 32.112C22.3545 30.0652 21.4262 28.2306 20.0469 26.8513C19.0876 25.8921 17.9073 25.145 16.5855 24.7073C15.834 24.4553 15.0118 24.504 14.2735 24.8046L1.49323 30.0254C0.290803 30.4984 -0.301568 31.8202 0.259861 32.7795L4.0705 39.331C4.63193 40.2947 6.06424 40.4273 7.07658 39.6228L19.5651 29.8221L17.4166 45.5553C17.2309 46.8329 18.0753 48.0044 19.1849 48L26.762 47.9779C27.8716 47.9779 28.7115 46.802 28.517 45.52L26.2713 29.8044L38.8217 39.5299C39.834 40.3301 41.2707 40.1842 41.8233 39.2205L45.5897 32.6469C46.1423 31.6832 45.5455 30.3702 44.3387 29.8972V29.8928ZM1.45787 18.1028L14.216 23.2264C14.941 23.5181 15.7456 23.5623 16.4838 23.3236C17.8454 22.886 19.0655 22.13 20.0469 21.1486C21.4262 19.7694 22.3545 17.9348 22.5932 15.888C22.6153 15.7068 22.7524 15.6183 22.8983 15.6183C23.0442 15.6183 23.1812 15.7068 23.2033 15.888C23.4464 17.9392 24.3748 19.7694 25.7496 21.1486C26.7133 22.1124 27.8981 22.8506 29.2199 23.2927C29.9714 23.5447 30.7937 23.4916 31.5275 23.191L44.3077 17.9657C45.5102 17.4927 46.1025 16.1709 45.5411 15.2116L41.7305 8.66016C41.169 7.69644 39.7367 7.56382 38.7244 8.36839L26.2359 18.1691L28.3799 2.43581C28.57 1.16707 27.7257 0 26.6161 0L19.039 0.0221035C17.925 0.0221035 17.0895 1.20243 17.284 2.48001L19.5297 18.1956L6.97933 8.47007C5.96257 7.6655 4.52584 7.81138 3.97325 8.77509L0.206815 15.3487C-0.345773 16.3124 0.255437 17.6253 1.45787 18.0939V18.1028Z" fill="#944ADB"/>
</svg>
